<svg xmlns="http://www.w3.org/2000/svg" width="146" height="146" viewBox="0 0 146 146">
  <defs>
    <style>
      .cls-1 {
        fill: #547788;
      }

      .cls-2 {
        fill: #fff;
        stroke: #fff;
      }
    </style>
  </defs>
  <g id="Group_507" data-name="Group 507" transform="translate(-426 -337)">
    <path id="Path_98" data-name="Path 98" class="cls-1" d="M73,0A73,73,0,1,1,0,73,73,73,0,0,1,73,0Z" transform="translate(426 337)"/>
    <path id="Path_88" data-name="Path 88" class="cls-2" d="M79.8,13.7a1.139,1.139,0,0,0-1.611,0l-6.445,6.445a1.139,1.139,0,0,0,1.611,1.611L79.8,15.306A1.139,1.139,0,0,0,79.8,13.7ZM47.576.353A1.156,1.156,0,0,0,46.77,0a1.172,1.172,0,0,0-1.158,1.158v9.113a1.158,1.158,0,1,0,2.316,0V1.158a1.155,1.155,0,0,0-.352-.806ZM93.143,45.919a1.153,1.153,0,0,0-.806-.352H83.223a1.158,1.158,0,0,0,0,2.316h9.113a1.171,1.171,0,0,0,1.158-1.158,1.152,1.152,0,0,0-.353-.806ZM66.911,26.585C56.67,16.343,38.818,14.4,27.564,25.653c-7.2,7.2-8.9,14.4-9.994,20.769s-1.634,11.8-6.243,16.413L1.66,72.5a5.717,5.717,0,0,0,0,8.056L3.271,82.17l-.806.806a5.7,5.7,0,0,0,8.056,8.056l.806-.806,1.611,1.611a5.717,5.717,0,0,0,8.056,0L30.66,82.17c4.609-4.609,10.041-5.148,16.413-6.243s13.574-2.8,20.769-9.994c11.254-11.254,9.31-29.106-.931-39.347ZM65.3,28.2c9.407,9.407,11.238,25.819.931,36.125-6.793,6.793-13.262,8.286-19.535,9.365-5.943,1.021-11.807,1.624-16.816,6.092L13.719,63.615c4.468-5.009,5.071-10.874,6.092-16.816,1.078-6.273,2.572-12.742,9.365-19.535C39.483,16.957,55.893,18.788,65.3,28.2Zm-9.642.126a2.156,2.156,0,0,0-.428-.277,20.5,20.5,0,0,0-20.164,1.838,1.206,1.206,0,0,0-.3,1.611,1.232,1.232,0,0,0,1.636.277,18.141,18.141,0,0,1,17.874-1.662,1.2,1.2,0,0,0,1.561-.3,1.122,1.122,0,0,0-.176-1.485ZM15.353,13.7a1.139,1.139,0,0,0-1.611,1.611l6.445,6.445A1.139,1.139,0,0,0,21.8,20.14Zm58,58a1.139,1.139,0,0,0-1.611,1.611l6.445,6.445A1.139,1.139,0,0,0,79.8,78.142L73.356,71.7ZM12.13,65.253,28.242,81.365,23.408,86.2,7.3,70.086ZM5.685,71.7,21.8,87.81,19.38,90.226a3.41,3.41,0,0,1-4.833,0L3.269,78.948a3.41,3.41,0,0,1,0-4.833ZM4.88,83.781l4.833,4.833-.806.806a3.418,3.418,0,0,1-4.833-4.833Z" transform="matrix(0.259, -0.966, 0.966, 0.259, 436.775, 434.808)"/>
  </g>
</svg>
