<svg xmlns="http://www.w3.org/2000/svg" viewBox="0 0 771.61002 532.75835">
  <defs>
    <style>
      .cls-1 {
        fill: #5ebfb9;
      }

      .cls-2 {
        fill: #b01980;
      }

      .cls-3 {
        isolation: isolate;
      }

      .cls-4 {
        fill: #fff;
      }

      .cls-5 {
        fill: #b01680;
      }
    </style>
  </defs>
  <g id="Layer_2" data-name="Layer 2">
    <g id="Layer_1-2" data-name="Layer 1">
      <g id="Layer_2-2" data-name="Layer 2">
        <rect id="Rectangle_17" data-name="Rectangle 17" class="cls-1" y="0.835" width="56.495" height="388.17001"/>
        <path id="Path_1" data-name="Path 1" class="cls-1" d="M148.389,389.228h56.495V67.348h0a18.089,18.089,0,0,1,18.47682,17.69267l.00218.11833V389.228h56.773l-.557-321.88h0a17.533,17.533,0,0,1,17.867,17.088l1,304.792h56.663V66.012c0-64.955,0-64.955-67.849-65.177H148.389Z"/>
        <rect id="Rectangle_18" data-name="Rectangle 18" class="cls-1" x="372.92001" y="67.126" width="56.495" height="321.76801"/>
        <path id="Path_2" data-name="Path 2" class="cls-1" d="M372.92.835v48.7h56.439C428.58.946,372.92.835,372.92.835Z"/>
        <rect id="Rectangle_19" data-name="Rectangle 19" class="cls-1" x="74.194" y="67.07" width="56.495" height="321.76801"/>
        <path id="Path_3" data-name="Path 3" class="cls-1" d="M74.25.835v48.7h56.383C129.687.668,74.25.835,74.25.835Z"/>
        <path id="Path_4" data-name="Path 4" class="cls-2" d="M604.409,42.576c0-38.958-47.868-41.63-47.868-41.63H454.851v388.23H557.766c44.528-3.785,46.643-41.578,46.643-41.578S604.575,119.557,604.409,42.576Zm-27.83,21.652V340.192a20.594,20.594,0,0,1-19.53934,21.59722q-.99966.05-2.00067.00278H482.681V28.498h72.358s21.6-.668,21.6,21.6Z"/>
        <path id="Path_5" data-name="Path 5" class="cls-2" d="M705.097,0H687.62c-31.893,3.173-66.792,24.49-66.792,63.842V326.277c0,34.732,25.993,56.606,66.792,63.842h17.477c35.121-5.566,66.513-27.051,66.513-63.842V63.842C771.61,27.273,741.721,4.731,705.097,0Zm37.57,317.928a45.585,45.585,0,0,1-46.309,44.528h0a45.585,45.585,0,0,1-46.309-44.528V72.358A45.585,45.585,0,0,1,696.358,27.83h0a45.585,45.585,0,0,1,46.309,44.528Z"/>
      </g>
      <g class="cls-3">
        <path class="cls-4" d="M2.00764,519.79839,3.80794,446.898h6.83984l14.3999,63.27051L39.71809,446.898h6.83985l1.7998,72.90039H42.68782l-1.43994-58.0498-13.9502,58.0498H22.888l-13.77-57.96-1.44,57.96Z"/>
        <path class="cls-4" d="M69.95686,520.608a9.60314,9.60314,0,0,1-5.49023-1.57422,10.63943,10.63943,0,0,1-3.645-4.23046,12.96984,12.96984,0,0,1-1.30469-5.80469,18.03987,18.03987,0,0,1,1.125-6.75,13.35025,13.35025,0,0,1,3.6001-4.99512,32.78154,32.78154,0,0,1,6.48-4.32031q4.00343-2.11377,9.76465-4.72461v-3.69043a37.84057,37.84057,0,0,0-.585-7.51465,6.80914,6.80914,0,0,0-1.98-3.915,5.92684,5.92684,0,0,0-3.915-1.16992,8.13736,8.13736,0,0,0-3.68994.80957,5.96661,5.96661,0,0,0-2.60987,2.74512,11.90831,11.90831,0,0,0-.99023,5.35547v1.7998l-6.48-.08984q.08862-7.919,3.375-11.74512,3.28491-3.8247,10.75537-3.82519,7.01954,0,9.855,4.18554,2.83448,4.18359,2.835,13.00488v25.29q0,1.34913.08984,3.46485.08863,2.11523.18018,4.00488.08862,1.88965.17969,2.87988H81.65706q-.18165-1.708-.54-3.82519-.36108-2.11377-.4502-3.375a13.0649,13.0649,0,0,1-3.82519,5.58008A10.00757,10.00757,0,0,1,69.95686,520.608Zm2.06983-5.5791a6.76075,6.76075,0,0,0,3.6001-.99023,12.97908,12.97908,0,0,0,2.87988-2.38477,12.8141,12.8141,0,0,0,1.98-2.83594V492.61871q-3.87012,1.98047-6.61475,3.59961a28.22422,28.22422,0,0,0-4.45508,3.15039,9.61286,9.61286,0,0,0-2.52,3.46484,11.71864,11.71864,0,0,0-.81005,4.54492q0,4.14111,1.80029,5.89453A5.75838,5.75838,0,0,0,72.02669,515.02886Z"/>
        <path class="cls-4" d="M98.576,519.79839V446.898h6.57032v46.26074L122.516,467.77886h6.93017L116.306,487.8482l12.6001,31.95019h-6.66015l-10.98-28.25976-6.11963,8.5498v19.71Z"/>
        <path class="cls-4" d="M149.33528,520.608a14.853,14.853,0,0,1-7.96484-1.93457,11.41122,11.41122,0,0,1-4.58985-6.43457,39.25461,39.25461,0,0,1-1.48535-11.9707V487.12847q0-7.73877,1.53028-12.10547a11.06342,11.06342,0,0,1,4.67968-6.21,15.485,15.485,0,0,1,7.92041-1.84472q5.488,0,8.36963,2.33984a12.48577,12.48577,0,0,1,4.00537,7.06543,53.71406,53.71406,0,0,1,1.125,12.10449v4.68066H141.86555v9.08985a32.79008,32.79008,0,0,0,.76465,7.96484,7.3694,7.3694,0,0,0,2.43018,4.18457,6.87594,6.87594,0,0,0,4.2749,1.26074,8.31771,8.31771,0,0,0,3.6001-.76562,5.44222,5.44222,0,0,0,2.56494-2.96973,16.39943,16.39943,0,0,0,.94531-6.25488v-3.60059h6.38965v2.88086q0,7.11036-2.9248,11.38477Q156.98445,520.60943,149.33528,520.608Zm-7.46973-31.22949h14.58008v-4.32031a47.43953,47.43953,0,0,0-.45019-7.06445,8.21956,8.21956,0,0,0-1.93506-4.5q-1.48463-1.57472-4.7251-1.5752a7.44046,7.44046,0,0,0-4.36474,1.16992,6.81521,6.81521,0,0,0-2.38526,4.18457,39.17529,39.17529,0,0,0-.71973,8.59571Z"/>
        <path class="cls-4" d="M185.51448,520.608a12.80389,12.80389,0,0,1-9.8999-4.00488q-3.69141-4.00341-4.23-10.75488l5.48974-1.71q.54054,6.03075,2.79,8.77539a7.68787,7.68787,0,0,0,6.3003,2.74511,6.928,6.928,0,0,0,5.26464-1.93554,7.57492,7.57492,0,0,0,1.84522-5.44434,9.88173,9.88173,0,0,0-1.52979-5.08594,22.80288,22.80288,0,0,0-4.77-5.35449l-7.11035-6.12011a24.92642,24.92642,0,0,1-5.31006-5.93946,13.45553,13.45553,0,0,1-1.7998-7.11035,11.90918,11.90918,0,0,1,1.57519-6.34473,10.524,10.524,0,0,1,4.36475-3.96,14.31093,14.31093,0,0,1,6.48-1.3955q5.93994,0,9,3.82519a16.53446,16.53446,0,0,1,3.33008,9.85449l-4.68018,1.53028a18.76763,18.76763,0,0,0-1.07959-5.80469,7.07,7.07,0,0,0-2.47509-3.375,6.60651,6.60651,0,0,0-3.8252-1.08008,6.91315,6.91315,0,0,0-4.81494,1.665,5.92343,5.92343,0,0,0-1.84473,4.63477,9.12465,9.12465,0,0,0,.89991,4.13964,15.16283,15.16283,0,0,0,3.33007,4.05078l7.37989,6.56934a52.849,52.849,0,0,1,4.14013,4.05078,19.45128,19.45128,0,0,1,3.23975,4.81446,14.47093,14.47093,0,0,1,1.26025,6.25488,12.89113,12.89113,0,0,1-1.665,6.79492,11.10493,11.10493,0,0,1-4.63525,4.23047A15.52156,15.52156,0,0,1,185.51448,520.608Z"/>
        <path class="cls-4" d="M226.82307,532.75835v-5.12988a25.68037,25.68037,0,0,0,6.79493-.6748,4.44182,4.44182,0,0,0,3.82519-4.72559,17.66421,17.66421,0,0,0-.54-3.7793q-.54053-2.33935-1.17041-4.86035l-10.71-45.80957h6.57031l9,44.2793,8.73-44.2793h6.65967l-12.59961,55.71a11.34926,11.34926,0,0,1-2.56494,5.3545,10.77363,10.77363,0,0,1-4.86035,2.96972,25.12676,25.12676,0,0,1-7.4248.94531Z"/>
        <path class="cls-4" d="M277.223,520.608q-5.31153,0-8.3252-2.29492a12.34938,12.34938,0,0,1-4.2749-6.65918,38.89559,38.89559,0,0,1-1.26025-10.665V486.58843a38.90549,38.90549,0,0,1,1.26025-10.665,12.35939,12.35939,0,0,1,4.2749-6.66015q3.01466-2.29542,8.3252-2.29492,5.488,0,8.46,2.29492a12.48654,12.48654,0,0,1,4.23,6.66015,38.9642,38.9642,0,0,1,1.25976,10.665v14.40039a38.95427,38.95427,0,0,1-1.25976,10.665,12.4763,12.4763,0,0,1-4.23,6.65918Q282.713,520.60846,277.223,520.608Zm0-4.94922q3.41894,0,4.99463-1.80078a9.03876,9.03876,0,0,0,1.93505-5.085,68.90073,68.90073,0,0,0,.36036-7.4248V486.22808a67.36627,67.36627,0,0,0-.36036-7.4248,9.16986,9.16986,0,0,0-1.93505-5.04q-1.57545-1.84278-4.99463-1.84473-3.42187,0-4.9502,1.84473a9.36216,9.36216,0,0,0-1.89014,5.04,67.13856,67.13856,0,0,0-.35986,7.4248V501.3482a68.66087,68.66087,0,0,0,.35986,7.4248,9.22657,9.22657,0,0,0,1.89014,5.085Q273.80207,515.65973,277.223,515.65874Z"/>
        <path class="cls-4" d="M309.71175,520.608a7.136,7.136,0,0,1-4.41016-1.34961,8.37552,8.37552,0,0,1-2.74463-3.78027,16.4334,16.4334,0,0,1-.94531-5.93945V467.77886h6.66015V508.0982q0,4.05028,1.21485,5.66992a4.36593,4.36593,0,0,0,3.73535,1.62012,9.09372,9.09372,0,0,0,4.72461-1.43946,20.36012,20.36012,0,0,0,4.45508-3.69043V467.77886H328.972v52.01953h-6.57031v-5.75976a22.19419,22.19419,0,0,1-5.75977,4.72461A13.788,13.788,0,0,1,309.71175,520.608Z"/>
      </g>
      <g class="cls-3">
        <path class="cls-5" d="M362.45,519.79839V446.898h15.83984q7.64868,0,11.92481,2.65528a14.52669,14.52669,0,0,1,6.07519,7.51464,32.31676,32.31676,0,0,1,1.79981,11.25v28.98047a35.44,35.44,0,0,1-1.79981,11.835,15.37292,15.37292,0,0,1-5.93994,7.875q-4.14111,2.79054-11.43018,2.79Zm6.83984-5.12988h9.18018q5.75829,0,8.46-2.38477a10.91008,10.91008,0,0,0,3.41992-6.57031,56.43109,56.43109,0,0,0,.71973-9.49511V469.03863a38.28883,38.28883,0,0,0-.94483-9.22559,9.49548,9.49548,0,0,0-3.68994-5.66992q-2.74658-1.93359-8.23486-1.93457h-8.91016Z"/>
        <path class="cls-5" d="M428.41927,520.69878q-7.28981,0-11.38477-2.835a14.98372,14.98372,0,0,1-5.76025-7.9209,37.39181,37.39181,0,0,1-1.665-11.65429V468.04839a34.35046,34.35046,0,0,1,1.75537-11.56543,14.77786,14.77786,0,0,1,5.84961-7.60449q4.09423-2.6997,11.20508-2.70019,7.02026,0,11.11523,2.70019a14.55654,14.55654,0,0,1,5.80469,7.60449,35.2121,35.2121,0,0,1,1.71,11.56543v30.33008a36.567,36.567,0,0,1-1.665,11.56445,15.31312,15.31312,0,0,1-5.71484,7.875Q435.61971,520.70074,428.41927,520.69878Zm0-5.49023q4.76952,0,7.29-1.93555a9.82041,9.82041,0,0,0,3.46485-5.39941,30.74639,30.74639,0,0,0,.94531-8.05567V466.78863a30.22887,30.22887,0,0,0-.94531-8.00977,9.37257,9.37257,0,0,0-3.46485-5.26562q-2.521-1.84278-7.29-1.84473-4.85962,0-7.42481,1.84473a9.285,9.285,0,0,0-3.51025,5.26562,30.25006,30.25006,0,0,0-.94483,8.00977v33.02929a30.768,30.768,0,0,0,.94483,8.05567,9.72241,9.72241,0,0,0,3.51025,5.39941Q423.5594,515.20953,428.41927,515.20855Z"/>
      </g>
      <g class="cls-3">
        <path class="cls-4" d="M477.55843,532.75835v-5.12988a25.68033,25.68033,0,0,0,6.79492-.6748,4.4418,4.4418,0,0,0,3.82519-4.72559,17.66421,17.66421,0,0,0-.54-3.7793q-.54053-2.33935-1.17041-4.86035l-10.71-45.80957h6.57032l9,44.2793,8.73-44.2793h6.65966l-12.59961,55.71a11.34926,11.34926,0,0,1-2.56494,5.3545,10.77363,10.77363,0,0,1-4.86035,2.96972,25.12676,25.12676,0,0,1-7.4248.94531Z"/>
        <path class="cls-4" d="M527.95784,520.608q-5.31153,0-8.3252-2.29492a12.34944,12.34944,0,0,1-4.2749-6.65918,38.89559,38.89559,0,0,1-1.26025-10.665V486.58843a38.90549,38.90549,0,0,1,1.26025-10.665,12.35945,12.35945,0,0,1,4.2749-6.66015q3.01465-2.29542,8.3252-2.29492,5.488,0,8.46,2.29492a12.48654,12.48654,0,0,1,4.23,6.66015,38.96378,38.96378,0,0,1,1.25977,10.665v14.40039a38.95385,38.95385,0,0,1-1.25977,10.665,12.4763,12.4763,0,0,1-4.23,6.65918Q533.44783,520.60846,527.95784,520.608Zm0-4.94922q3.41895,0,4.99463-1.80078a9.03876,9.03876,0,0,0,1.93506-5.085,68.90092,68.90092,0,0,0,.36035-7.4248V486.22808a67.36648,67.36648,0,0,0-.36035-7.4248,9.16987,9.16987,0,0,0-1.93506-5.04q-1.57543-1.84278-4.99463-1.84473-3.42187,0-4.9502,1.84473a9.36215,9.36215,0,0,0-1.89013,5.04,67.1359,67.1359,0,0,0-.35987,7.4248V501.3482a68.65813,68.65813,0,0,0,.35987,7.4248,9.22657,9.22657,0,0,0,1.89013,5.085Q524.537,515.65973,527.95784,515.65874Z"/>
        <path class="cls-4" d="M560.44661,520.608a7.136,7.136,0,0,1-4.41016-1.34961,8.37559,8.37559,0,0,1-2.74463-3.78027,16.4334,16.4334,0,0,1-.94531-5.93945V467.77886h6.66016V508.0982q0,4.05028,1.21484,5.66992a4.36593,4.36593,0,0,0,3.73535,1.62012,9.09372,9.09372,0,0,0,4.72461-1.43946,20.35989,20.35989,0,0,0,4.45508-3.69043V467.77886h6.57031v52.01953h-6.57031v-5.75976a22.19414,22.19414,0,0,1-5.75976,4.72461A13.78808,13.78808,0,0,1,560.44661,520.608Z"/>
        <path class="cls-4" d="M592.12581,519.79839V467.77886H598.786v7.10938a15.75576,15.75576,0,0,1,5.75977-5.89453,13.05319,13.05319,0,0,1,6.21-1.75489h.54a2.66834,2.66834,0,0,1,.62988.08985v7.01953a6.32507,6.32507,0,0,0-1.53027-.40528,11.56,11.56,0,0,0-1.71-.13476,10.80881,10.80881,0,0,0-5.53418,1.44043,12.65692,12.65692,0,0,0-4.36524,4.58984v39.96Z"/>
        <path class="cls-4" d="M656.29573,520.608a9.20182,9.20182,0,0,1-5.44531-1.61914,22.5581,22.5581,0,0,1-3.8252-3.33008v4.13965h-6.57031V446.898h6.57031v25.2002a15.79519,15.79519,0,0,1,3.96-3.55469,10.70194,10.70194,0,0,1,5.94043-1.57519,9.94467,9.94467,0,0,1,6.12012,1.75488,11.26629,11.26629,0,0,1,3.59961,4.72558,24.655,24.655,0,0,1,1.71,6.65918,62.47808,62.47808,0,0,1,.4502,7.56055V498.648a52.30017,52.30017,0,0,1-1.125,11.56543,15.63262,15.63262,0,0,1-3.8252,7.65039Q661.1556,520.60894,656.29573,520.608Zm-1.1709-5.21972a5.42778,5.42778,0,0,0,4.5459-1.88965,11.542,11.542,0,0,0,1.97949-5.625,70.39851,70.39851,0,0,0,.49512-9.04492V487.66851a61.67793,61.67793,0,0,0-.49512-8.50488,10.5469,10.5469,0,0,0-1.97949-5.26563,5.67,5.67,0,0,0-4.63574-1.7998,8.28957,8.28957,0,0,0-4.54492,1.35058,20.48869,20.48869,0,0,0-3.46485,2.69922v35.46a13.761,13.761,0,0,0,3.50977,2.65528A9.44364,9.44364,0,0,0,655.12483,515.38824Z"/>
        <path class="cls-4" d="M692.65315,520.608a14.85533,14.85533,0,0,1-7.96484-1.93457,11.41569,11.41569,0,0,1-4.58985-6.43457,39.25461,39.25461,0,0,1-1.48535-11.9707V487.12847q0-7.73877,1.53028-12.10547a11.06342,11.06342,0,0,1,4.67968-6.21,15.4856,15.4856,0,0,1,7.9209-1.84472q5.48732,0,8.36914,2.33984a12.48618,12.48618,0,0,1,4.00586,7.06543,53.74266,53.74266,0,0,1,1.125,12.10449v4.68066H685.18343v9.08985a32.81483,32.81483,0,0,0,.76464,7.96484,7.36978,7.36978,0,0,0,2.43067,4.18457,6.87543,6.87543,0,0,0,4.27441,1.26074,8.3199,8.3199,0,0,0,3.60059-.76562,5.44156,5.44156,0,0,0,2.56445-2.96973,16.39943,16.39943,0,0,0,.94531-6.25488v-3.60059h6.38965v2.88086q0,7.11036-2.9248,11.38477Q700.30305,520.60943,692.65315,520.608Zm-7.46972-31.22949H699.7635v-4.32031a47.37358,47.37358,0,0,0-.45019-7.06445,8.2193,8.2193,0,0,0-1.93457-4.5q-1.48536-1.57472-4.72559-1.5752a7.43889,7.43889,0,0,0-4.36426,1.16992,6.81329,6.81329,0,0,0-2.38574,4.18457,39.206,39.206,0,0,0-.71972,8.59571Z"/>
        <path class="cls-4" d="M728.83284,520.608a12.805,12.805,0,0,1-9.90039-4.00488q-3.69141-4.00341-4.22949-10.75488l5.48925-1.71q.54054,6.03075,2.79,8.77539a7.68886,7.68886,0,0,0,6.30079,2.74511,6.928,6.928,0,0,0,5.26464-1.93554,7.57472,7.57472,0,0,0,1.84473-5.44434,9.881,9.881,0,0,0-1.5293-5.08594,22.80643,22.80643,0,0,0-4.7705-5.35449l-7.11036-6.12011a24.9127,24.9127,0,0,1-5.30957-5.93946,13.451,13.451,0,0,1-1.7998-7.11035,11.90918,11.90918,0,0,1,1.57519-6.34473,10.52274,10.52274,0,0,1,4.36426-3.96,14.31305,14.31305,0,0,1,6.48047-1.3955q5.93994,0,9,3.82519a16.5377,16.5377,0,0,1,3.33008,9.85449l-4.68067,1.53028a18.75437,18.75437,0,0,0-1.0791-5.80469,7.07061,7.07061,0,0,0-2.47558-3.375,6.60649,6.60649,0,0,0-3.8252-1.08008,6.91189,6.91189,0,0,0-4.81445,1.665,5.92343,5.92343,0,0,0-1.84473,4.63477,9.12454,9.12454,0,0,0,.89942,4.13964,15.17243,15.17243,0,0,0,3.33007,4.05078l7.37989,6.56934a52.85482,52.85482,0,0,1,4.14062,4.05078,19.463,19.463,0,0,1,3.23926,4.81446,14.46373,14.46373,0,0,1,1.26074,6.25488,12.89113,12.89113,0,0,1-1.665,6.79492,11.1033,11.1033,0,0,1-4.63574,4.23047A15.518,15.518,0,0,1,728.83284,520.608Z"/>
        <path class="cls-4" d="M763.75179,520.42828a9.70009,9.70009,0,0,1-5.80469-1.48536,7.5194,7.5194,0,0,1-2.79-4.0498,20.6241,20.6241,0,0,1-.76563-5.89453V472.0982h-6.38964v-4.31934h6.38964V451.66851h6.57032v16.11035h8.64062v4.31934h-8.64062v36.27051a12.03339,12.03339,0,0,0,.85546,5.35449q.854,1.57617,3.73438,1.57519a14.47122,14.47122,0,0,0,1.8457-.13476q1.03272-.13477,1.93457-.31543v5.04a27.23624,27.23624,0,0,1-2.79.40527Q765.10188,520.42827,763.75179,520.42828Z"/>
      </g>
    </g>
  </g>
</svg>
