<svg xmlns="http://www.w3.org/2000/svg" viewBox="0 0 606.251 547.96601">
  <defs>
    <style>
      .cls-1 {
        fill: #5ebfb9;
      }

      .cls-2 {
        fill: #b01980;
      }

      .cls-3 {
        isolation: isolate;
      }

      .cls-4 {
        fill: #1d292f;
      }

      .cls-5 {
        fill: #787777;
      }

      .cls-6 {
        fill: #b01680;
      }

      .cls-7 {
        fill: #6cc2b9;
      }
    </style>
  </defs>
  <g id="Layer_2" data-name="Layer 2">
    <g id="Layer_1-2" data-name="Layer 1">
      <g>
        <g id="Layer_2-2" data-name="Layer 2">
          <g id="Layer_2-2-2" data-name="Layer 2-2">
            <rect id="Rectangle_17" data-name="Rectangle 17" class="cls-1" x="98.99096" y="131.44201" width="29.885" height="205.33701"/>
            <path id="Path_1" data-name="Path 1" class="cls-1" d="M177.486,336.892h29.885V166.627h0a9.569,9.569,0,0,1,9.77386,9.35966l.00114.06234V336.892h30.032l-.294-170.27h0a9.275,9.275,0,0,1,9.451,9.039l.53,161.231h29.973V165.92c0-34.36,0-34.36-35.891-34.478H177.486Z"/>
            <rect id="Rectangle_18" data-name="Rectangle 18" class="cls-1" x="296.25995" y="166.50801" width="29.885" height="170.211"/>
            <path id="Path_2" data-name="Path 2" class="cls-1" d="M296.26,131.442v25.763h29.855C325.703,131.501,296.26,131.442,296.26,131.442Z"/>
            <rect id="Rectangle_19" data-name="Rectangle 19" class="cls-1" x="138.23896" y="166.47901" width="29.885" height="170.211"/>
            <path id="Path_3" data-name="Path 3" class="cls-1" d="M138.268,131.442v25.763h29.826C167.593,131.354,138.268,131.442,138.268,131.442Z"/>
            <path id="Path_4" data-name="Path 4" class="cls-2" d="M418.714,153.524c0-20.61-25.321-22.023-25.321-22.023H339.6V336.867h54.44c23.555-2,24.673-21.994,24.673-21.994S418.802,194.244,418.714,153.524Zm-14.722,11.454V310.957a10.894,10.894,0,0,1-10.33839,11.42261q-.52746.02628-1.0556.00139H354.322V146.075h38.276s11.424-.353,11.424,11.424Z"/>
            <path id="Path_5" data-name="Path 5" class="cls-2" d="M471.977,131h-9.245c-16.872,1.678-35.332,12.955-35.332,33.771V303.6c0,18.373,13.75,29.944,35.332,33.771h9.245c18.583-2.948,35.183-14.313,35.183-33.771V164.771C507.16,145.427,491.351,133.5,471.977,131Zm19.874,168.179a24.114,24.114,0,0,1-24.5,23.555h0a24.114,24.114,0,0,1-24.491-23.555V169.276a24.114,24.114,0,0,1,24.5-23.555h0a24.114,24.114,0,0,1,24.5,23.555Z"/>
          </g>
        </g>
        <g class="cls-3">
          <path class="cls-4" d="M95.87841,411.50317l.96045-38.87988h3.648l7.67969,33.74414,7.82422-33.74414h3.648l.96,38.87988H117.5747l-.76807-30.96-7.43994,30.96h-2.35205L99.6704,380.59106l-.76757,30.91211Z"/>
          <path class="cls-4" d="M131.63818,411.93481a5.11964,5.11964,0,0,1-2.92774-.83984,5.66722,5.66722,0,0,1-1.94385-2.25586,6.91416,6.91416,0,0,1-.69628-3.09571,9.62553,9.62553,0,0,1,.60009-3.60058,7.13527,7.13527,0,0,1,1.91993-2.66406,17.487,17.487,0,0,1,3.45605-2.30372q2.135-1.12646,5.208-2.51953v-1.96875a20.20714,20.20714,0,0,0-.312-4.00781,3.63167,3.63167,0,0,0-1.05616-2.08789,3.16433,3.16433,0,0,0-2.08789-.624,4.3379,4.3379,0,0,0-1.96777.43261,3.171,3.171,0,0,0-1.39209,1.46387,6.34883,6.34883,0,0,0-.52832,2.85547v.96l-3.45557-.04785q.04688-4.22314,1.79981-6.26367,1.752-2.04053,5.73584-2.04,3.74414,0,5.25635,2.23144,1.51172,2.23244,1.51171,6.93653v13.48828q0,.71923.04786,1.84765.0476,1.12794.09619,2.13575.04761,1.00781.09619,1.53613h-3.12012q-.09667-.91113-.28808-2.04-.19263-1.12647-.23975-1.7998a6.96924,6.96924,0,0,1-2.04,2.97558A5.33758,5.33758,0,0,1,131.63818,411.93481Zm1.104-2.97559a3.60808,3.60808,0,0,0,1.92041-.52832,6.91571,6.91571,0,0,0,1.53565-1.27148,6.8375,6.8375,0,0,0,1.05615-1.5127v-8.63964q-2.06471,1.05615-3.52783,1.91992a15.106,15.106,0,0,0-2.376,1.67969,5.13991,5.13991,0,0,0-1.34424,1.84863,6.24713,6.24713,0,0,0-.43213,2.42383,4.26812,4.26812,0,0,0,.96,3.14355A3.07237,3.07237,0,0,0,132.74218,408.95922Z"/>
          <path class="cls-4" d="M146.42138,411.50317V372.62329h3.50439v24.67187l9.26368-13.53613h3.69629l-7.00831,10.7041,6.72022,17.04H159.0454l-5.856-15.07227-3.26368,4.56055v10.51172Z"/>
          <path class="cls-4" d="M173.01318,411.93481a7.922,7.922,0,0,1-4.24805-1.03125,6.09054,6.09054,0,0,1-2.44775-3.43262,20.92681,20.92681,0,0,1-.792-6.38379v-7.00781a20.23477,20.23477,0,0,1,.81592-6.45605,5.8989,5.8989,0,0,1,2.4961-3.3125,8.256,8.256,0,0,1,4.22363-.9834,6.93708,6.93708,0,0,1,4.46435,1.24805,6.65807,6.65807,0,0,1,2.13575,3.76757,28.64333,28.64333,0,0,1,.60009,6.45606v2.49609H169.02929v4.84766a17.491,17.491,0,0,0,.40771,4.24805,3.92992,3.92992,0,0,0,1.29639,2.23242,3.67162,3.67162,0,0,0,2.27979.67187,4.43349,4.43349,0,0,0,1.91992-.4082,2.9003,2.9003,0,0,0,1.36816-1.584,8.74353,8.74353,0,0,0,.50391-3.33593v-1.91992h3.4082v1.53613a10.57838,10.57838,0,0,1-1.56006,6.07226Q177.09253,411.93481,173.01318,411.93481Zm-3.98389-16.65527h7.77588v-2.30469a25.30469,25.30469,0,0,0-.23975-3.76758,4.38957,4.38957,0,0,0-1.03222-2.40039,3.3258,3.3258,0,0,0-2.52-.83984,3.97354,3.97354,0,0,0-2.32813.624,3.63487,3.63487,0,0,0-1.272,2.23242,20.89307,20.89307,0,0,0-.38379,4.584Z"/>
          <path class="cls-4" d="M191.82861,411.93481a6.827,6.827,0,0,1-5.27979-2.13574,9.2789,9.2789,0,0,1-2.25635-5.73633l2.92823-.91113a8.61748,8.61748,0,0,0,1.48779,4.67968,4.10106,4.10106,0,0,0,3.36035,1.46387,3.69441,3.69441,0,0,0,2.80762-1.03222,4.04048,4.04048,0,0,0,.98437-2.90332,5.27432,5.27432,0,0,0-.81591-2.7129,12.17763,12.17763,0,0,0-2.54444-2.85546l-3.792-3.26368a13.31664,13.31664,0,0,1-2.832-3.168,7.18043,7.18043,0,0,1-.96-3.792,6.35291,6.35291,0,0,1,.84033-3.38476,5.60925,5.60925,0,0,1,2.32764-2.11133,7.62942,7.62942,0,0,1,3.456-.74414,5.78045,5.78045,0,0,1,4.80029,2.04,8.819,8.819,0,0,1,1.77588,5.25586l-2.49609.81543a10.01756,10.01756,0,0,0-.57568-3.09571,3.77238,3.77238,0,0,0-1.32032-1.7998,3.52229,3.52229,0,0,0-2.04-.57617,3.68626,3.68626,0,0,0-2.56787.88769,3.16045,3.16045,0,0,0-.98388,2.47266,4.86825,4.86825,0,0,0,.48,2.208,8.0921,8.0921,0,0,0,1.77588,2.16015l3.936,3.50391a27.95664,27.95664,0,0,1,2.208,2.16016,10.37,10.37,0,0,1,1.728,2.56738,7.71626,7.71626,0,0,1,.67187,3.33594,6.87828,6.87828,0,0,1-.88769,3.624,5.91628,5.91628,0,0,1-2.47217,2.25586A8.27712,8.27712,0,0,1,191.82861,411.93481Z"/>
          <path class="cls-4" d="M212.8999,418.41528V415.679a13.73818,13.73818,0,0,0,3.624-.35937,2.37,2.37,0,0,0,2.04-2.52051,9.42,9.42,0,0,0-.28809-2.01563q-.28784-1.248-.624-2.59179L211.93993,383.759h3.50391l4.80029,23.61621L224.8999,383.759h3.55224l-6.72021,29.71191a6.05463,6.05463,0,0,1-1.36817,2.85645,5.74578,5.74578,0,0,1-2.59179,1.584,13.40176,13.40176,0,0,1-3.96.50391Z"/>
          <path class="cls-4" d="M239.2998,411.93481a7.17286,7.17286,0,0,1-4.43994-1.22363,6.58851,6.58851,0,0,1-2.27979-3.55176,20.73513,20.73513,0,0,1-.67187-5.68848v-7.67968a20.74492,20.74492,0,0,1,.67187-5.68848,6.59214,6.59214,0,0,1,2.27979-3.55176,8.79815,8.79815,0,0,1,8.95214,0,6.65938,6.65938,0,0,1,2.25586,3.55176,20.80159,20.80159,0,0,1,.67188,5.68848v7.67968a20.79174,20.79174,0,0,1-.67188,5.68848,6.65567,6.65567,0,0,1-2.25586,3.55176A7.24481,7.24481,0,0,1,239.2998,411.93481Zm0-2.63965a3.36161,3.36161,0,0,0,2.66406-.96,4.82561,4.82561,0,0,0,1.03223-2.71191,36.80961,36.80961,0,0,0,.19189-3.96v-8.06446a35.97742,35.97742,0,0,0-.19189-3.96,4.89365,4.89365,0,0,0-1.03223-2.6875,3.321,3.321,0,0,0-2.66406-.98437,3.243,3.243,0,0,0-2.63965.98437,4.99687,4.99687,0,0,0-1.0083,2.6875,35.85644,35.85644,0,0,0-.1919,3.96v8.06446a36.68319,36.68319,0,0,0,.1919,3.96,4.92647,4.92647,0,0,0,1.0083,2.71191A3.28187,3.28187,0,0,0,239.2998,409.29516Z"/>
          <path class="cls-4" d="M256.147,411.93481a3.80158,3.80158,0,0,1-2.35157-.71973,4.46384,4.46384,0,0,1-1.46386-2.01562,8.77212,8.77212,0,0,1-.50391-3.168V383.759h3.55176v21.50391a5.23177,5.23177,0,0,0,.64746,3.02441,2.32884,2.32884,0,0,0,1.99219.86426,4.84755,4.84755,0,0,0,2.5205-.76856,10.92653,10.92653,0,0,0,2.376-1.96777V383.759h3.50391v27.74414h-3.50391V408.4309a11.84153,11.84153,0,0,1-3.07227,2.52051A7.35964,7.35964,0,0,1,256.147,411.93481Z"/>
          <path class="cls-4" d="M283.314,411.50317V372.62329h8.44824a12.05256,12.05256,0,0,1,6.35938,1.416,7.74964,7.74964,0,0,1,3.24023,4.00782,17.24107,17.24107,0,0,1,.96,6v15.45605a18.89916,18.89916,0,0,1-.96,6.31152,8.19616,8.19616,0,0,1-3.168,4.2002,10.79833,10.79833,0,0,1-6.0957,1.48828Zm3.64844-2.73633h4.8955a6.69519,6.69519,0,0,0,4.51172-1.27148,5.81582,5.81582,0,0,0,1.82422-3.50391,30.08915,30.08915,0,0,0,.38379-5.06445V384.4309a20.4163,20.4163,0,0,0-.50391-4.91992,5.06319,5.06319,0,0,0-1.96777-3.02344,7.63681,7.63681,0,0,0-4.3916-1.03222h-4.752Z"/>
          <path class="cls-4" d="M318.01806,411.98364a10.55167,10.55167,0,0,1-6.07227-1.5127,7.98818,7.98818,0,0,1-3.07226-4.22363,19.96453,19.96453,0,0,1-.8877-6.21582V383.90356a18.3199,18.3199,0,0,1,.93555-6.168,7.88567,7.88567,0,0,1,3.12012-4.05664,13.02564,13.02564,0,0,1,11.90429,0,7.76418,7.76418,0,0,1,3.09571,4.05664,18.77683,18.77683,0,0,1,.91211,6.168v16.17578a19.51409,19.51409,0,0,1-.8877,6.168,8.17946,8.17946,0,0,1-3.04785,4.2002A10.20951,10.20951,0,0,1,318.01806,411.98364Zm0-2.92871a6.28056,6.28056,0,0,0,3.88769-1.03223,5.23763,5.23763,0,0,0,1.84766-2.87988,16.40673,16.40673,0,0,0,.50391-4.2959V383.23071a16.13618,16.13618,0,0,0-.50391-4.27149,4.99794,4.99794,0,0,0-1.84766-2.80761,6.517,6.517,0,0,0-3.88769-.98438,6.72639,6.72639,0,0,0-3.96.98438,4.94928,4.94928,0,0,0-1.87207,2.80761,16.13618,16.13618,0,0,0-.50391,4.27149v17.61621a16.40673,16.40673,0,0,0,.50391,4.2959,5.18324,5.18324,0,0,0,1.87207,2.87988A6.48,6.48,0,0,0,318.01806,409.05493Z"/>
          <path class="cls-4" d="M343.26513,418.41528V415.679a13.73561,13.73561,0,0,0,3.624-.35937,2.37,2.37,0,0,0,2.04-2.52051,9.38918,9.38918,0,0,0-.28808-2.01563q-.28712-1.248-.624-2.59179L342.30517,383.759h3.50391l4.80078,23.61621,4.65527-23.61621h3.55273l-6.7207,29.71191a6.04548,6.04548,0,0,1-1.36816,2.85645,5.74312,5.74312,0,0,1-2.5918,1.584,13.40173,13.40173,0,0,1-3.96.50391Z"/>
          <path class="cls-4" d="M369.66552,411.93481a7.17444,7.17444,0,0,1-4.44043-1.22363,6.58518,6.58518,0,0,1-2.2793-3.55176,20.71658,20.71658,0,0,1-.67187-5.68848v-7.67968a20.72635,20.72635,0,0,1,.67187-5.68848,6.5888,6.5888,0,0,1,2.2793-3.55176,8.79818,8.79818,0,0,1,8.95215,0,6.65374,6.65374,0,0,1,2.25586,3.55176,20.76061,20.76061,0,0,1,.67285,5.68848v7.67968a20.7508,20.7508,0,0,1-.67285,5.68848,6.65,6.65,0,0,1-2.25586,3.55176A7.24329,7.24329,0,0,1,369.66552,411.93481Zm0-2.63965a3.36229,3.36229,0,0,0,2.66406-.96,4.82914,4.82914,0,0,0,1.03223-2.71191,36.94565,36.94565,0,0,0,.19141-3.96v-8.06446a36.10944,36.10944,0,0,0-.19141-3.96,4.89735,4.89735,0,0,0-1.03223-2.6875,3.3217,3.3217,0,0,0-2.66406-.98437,3.24164,3.24164,0,0,0-2.63965.98437,4.99317,4.99317,0,0,0-1.00879,2.6875,35.86716,35.86716,0,0,0-.1914,3.96v8.06446a36.69235,36.69235,0,0,0,.1914,3.96,4.92288,4.92288,0,0,0,1.00879,2.71191A3.28052,3.28052,0,0,0,369.66552,409.29516Z"/>
          <path class="cls-4" d="M386.51318,411.93481a3.8045,3.8045,0,0,1-2.35254-.71973,4.46386,4.46386,0,0,1-1.46387-2.01562,8.77212,8.77212,0,0,1-.50391-3.168V383.759h3.55176v21.50391a5.2228,5.2228,0,0,0,.64844,3.02441,2.32763,2.32763,0,0,0,1.99219.86426,4.847,4.847,0,0,0,2.51953-.76856,10.88074,10.88074,0,0,0,2.376-1.96777V383.759h3.50391v27.74414h-3.50391V408.4309a11.84165,11.84165,0,0,1-3.07226,2.52051A7.35348,7.35348,0,0,1,386.51318,411.93481Z"/>
          <path class="cls-4" d="M402.92822,411.50317V383.759H406.48v3.792a8.40075,8.40075,0,0,1,3.07227-3.14355,6.96139,6.96139,0,0,1,3.31152-.93653h.28809a1.44288,1.44288,0,0,1,.33594.04785v3.74415a3.34852,3.34852,0,0,0-.81543-.21582,6.18186,6.18186,0,0,0-.91211-.07227,5.76548,5.76548,0,0,0-2.95215.76855,6.75381,6.75381,0,0,0-2.32813,2.44825v21.31152Z"/>
          <path class="cls-4" d="M436.19189,411.93481a4.9102,4.9102,0,0,1-2.9043-.86328,12.00868,12.00868,0,0,1-2.04-1.77637v2.208h-3.5039V372.62329h3.5039v13.43945a8.43757,8.43757,0,0,1,2.11231-1.89551,5.70421,5.70421,0,0,1,3.168-.83984,5.30046,5.30046,0,0,1,3.26367.93555,5.99956,5.99956,0,0,1,1.91992,2.5205,13.12819,13.12819,0,0,1,.91211,3.55176,33.26376,33.26376,0,0,1,.24023,4.03223v5.85547a27.8273,27.8273,0,0,1-.60058,6.168,8.32947,8.32947,0,0,1-2.04,4.08007A5.39564,5.39564,0,0,1,436.19189,411.93481Zm-.624-2.7832a2.895,2.895,0,0,0,2.42383-1.00879,6.14593,6.14593,0,0,0,1.05567-3,37.47964,37.47964,0,0,0,.26464-4.82324v-5.95215a32.84486,32.84486,0,0,0-.26464-4.53614,5.61819,5.61819,0,0,0-1.05567-2.80859,3.02344,3.02344,0,0,0-2.47168-.96,4.42257,4.42257,0,0,0-2.4248.7207,10.93967,10.93967,0,0,0-1.84766,1.43946V407.135a7.34211,7.34211,0,0,0,1.87207,1.416A5.03627,5.03627,0,0,0,435.56786,409.15161Z"/>
          <path class="cls-4" d="M455.103,411.93481a7.91967,7.91967,0,0,1-4.24805-1.03125,6.09113,6.09113,0,0,1-2.44824-3.43262,20.92685,20.92685,0,0,1-.792-6.38379v-7.00781a20.21847,20.21847,0,0,1,.81641-6.45605,5.89465,5.89465,0,0,1,2.49609-3.3125,8.25481,8.25481,0,0,1,4.22363-.9834,6.93654,6.93654,0,0,1,4.46387,1.24805,6.65806,6.65806,0,0,1,2.13574,3.76757,28.61117,28.61117,0,0,1,.60059,6.45606v2.49609H451.11865v4.84766a17.4626,17.4626,0,0,0,.4082,4.24805,3.92943,3.92943,0,0,0,1.2959,2.23242,3.6721,3.6721,0,0,0,2.28027.67187,4.43655,4.43655,0,0,0,1.91992-.4082,2.90035,2.90035,0,0,0,1.36817-1.584,8.74375,8.74375,0,0,0,.5039-3.33593v-1.91992h3.40821v1.53613a10.57458,10.57458,0,0,1-1.56055,6.07226Q459.18261,411.93481,455.103,411.93481Zm-3.98437-16.65527H458.895v-2.30469a25.23341,25.23341,0,0,0-.24023-3.76758,4.38258,4.38258,0,0,0-1.03223-2.40039,3.32454,3.32454,0,0,0-2.51953-.83984,3.97349,3.97349,0,0,0-2.32812.624,3.63287,3.63287,0,0,0-1.27247,2.23242,20.92439,20.92439,0,0,0-.38378,4.584Z"/>
          <path class="cls-4" d="M473.91845,411.93481a6.828,6.828,0,0,1-5.28027-2.13574,9.27854,9.27854,0,0,1-2.25586-5.73633l2.92773-.91113a8.61725,8.61725,0,0,0,1.48828,4.67968,4.10042,4.10042,0,0,0,3.36035,1.46387,3.69441,3.69441,0,0,0,2.80762-1.03222,4.04259,4.04259,0,0,0,.98438-2.90332,5.2704,5.2704,0,0,0-.81641-2.7129,12.17416,12.17416,0,0,0-2.54394-2.85546l-3.792-3.26368a13.30636,13.30636,0,0,1-2.832-3.168,7.176,7.176,0,0,1-.96-3.792,6.35293,6.35293,0,0,1,.83984-3.38476,5.61056,5.61056,0,0,1,2.32813-2.11133,7.628,7.628,0,0,1,3.45605-.74414,5.77884,5.77884,0,0,1,4.79981,2.04,8.81928,8.81928,0,0,1,1.77637,5.25586l-2.4961.81543a10.01613,10.01613,0,0,0-.57617-3.09571,3.77231,3.77231,0,0,0-1.32031-1.7998,3.52123,3.52123,0,0,0-2.04-.57617,3.685,3.685,0,0,0-2.56738.88769,3.16076,3.16076,0,0,0-.98438,2.47266,4.86849,4.86849,0,0,0,.48047,2.208,8.09854,8.09854,0,0,0,1.77539,2.16015l3.93652,3.50391a28.04088,28.04088,0,0,1,2.208,2.16016,10.36761,10.36761,0,0,1,1.72754,2.56738,7.70912,7.70912,0,0,1,.67188,3.33594,6.87361,6.87361,0,0,1-.8877,3.624,5.91786,5.91786,0,0,1-2.47168,2.25586A8.28,8.28,0,0,1,473.91845,411.93481Z"/>
          <path class="cls-4" d="M492.062,411.83911a5.1715,5.1715,0,0,1-3.0957-.792A4.01746,4.01746,0,0,1,487.478,408.887a11.00049,11.00049,0,0,1-.4082-3.14356V386.06274h-3.40821V383.759h3.40821v-8.5918h3.5039v8.5918h4.6084v2.30371h-4.6084v19.34473a6.43167,6.43167,0,0,0,.45606,2.85547q.45556.84081,1.99219.83984a7.71852,7.71852,0,0,0,.98437-.07129q.55079-.07178,1.03223-.168v2.6875a14.55009,14.55009,0,0,1-1.48828.21582C493.03759,411.81469,492.54247,411.83911,492.062,411.83911Z"/>
        </g>
        <g id="Group_354" data-name="Group 354">
          <rect id="Rectangle_82" data-name="Rectangle 82" class="cls-4" x="365.81095" width="1.224" height="18.243"/>
          <rect id="Rectangle_83" data-name="Rectangle 83" class="cls-4" x="365.81095" y="51.597" width="1.224" height="18.243"/>
          <path id="Path_23" data-name="Path 23" class="cls-4" d="M378.615,23.563l-.866-.868,12.865-12.9.865.868Z"/>
          <path id="Path_24" data-name="Path 24" class="cls-4" d="M342.233,60.046l-.866-.868,12.864-12.9.865.869Z"/>
          <rect id="Rectangle_84" data-name="Rectangle 84" class="cls-4" x="383.05395" y="34.306" width="18.191" height="1.227"/>
          <rect id="Rectangle_85" data-name="Rectangle 85" class="cls-4" x="331.60095" y="34.306" width="18.192" height="1.227"/>
          <path id="Path_25" data-name="Path 25" class="cls-4" d="M390.613,60.046l-12.863-12.9.865-.869,12.864,12.9Z"/>
          <path id="Path_26" data-name="Path 26" class="cls-4" d="M354.232,23.563l-12.865-12.9.866-.868,12.864,12.9Z"/>
        </g>
        <g id="Group_352" data-name="Group 352">
          <rect id="Rectangle_82-2" data-name="Rectangle 82-2" class="cls-4" x="189.13597" y="479.43901" width="1.201" height="17.9"/>
          <rect id="Rectangle_83-2" data-name="Rectangle 83-2" class="cls-4" x="189.13597" y="530.06601" width="1.201" height="17.9"/>
          <path id="Path_23-2" data-name="Path 23-2" class="cls-4" d="M201.699,502.558l-.85-.852,12.623-12.657.848.852Z"/>
          <path id="Path_24-2" data-name="Path 24-2" class="cls-4" d="M166,538.356l-.849-.852,12.622-12.657.848.853Z"/>
          <rect id="Rectangle_84-2" data-name="Rectangle 84-2" class="cls-4" x="206.05497" y="513.10001" width="17.849" height="1.204"/>
          <rect id="Rectangle_85-2" data-name="Rectangle 85-2" class="cls-4" x="155.56897" y="513.10001" width="17.85" height="1.204"/>
          <path id="Path_25-2" data-name="Path 25-2" class="cls-4" d="M213.471,538.356,200.85,525.7l.848-.853,12.623,12.657Z"/>
          <path id="Path_26-2" data-name="Path 26-2" class="cls-4" d="M177.774,502.558l-12.623-12.659.849-.852,12.627,12.66Z"/>
        </g>
        <circle id="Ellipse_33" data-name="Ellipse 33" class="cls-4" cx="12.178" cy="283.01801" r="12.178"/>
        <circle id="Ellipse_48" data-name="Ellipse 48" class="cls-4" cx="524.97891" cy="81.539" r="7.115"/>
        <circle id="Ellipse_35" data-name="Ellipse 35" class="cls-5" cx="587.787" cy="290.229" r="18.464"/>
        <circle id="Ellipse_36" data-name="Ellipse 36" class="cls-6" cx="168.13899" cy="56.62301" r="17.8"/>
        <ellipse id="Ellipse_34" data-name="Ellipse 34" class="cls-7" cx="459.66994" cy="497.17799" rx="25.928" ry="25.535"/>
      </g>
    </g>
  </g>
</svg>
